HIERARCHY
ROOT RootJoint
{
    OFFSET   0.000000   0.000000   0.000000
    CHANNELS 6 Xposition Yposition Zposition Xrotation Yrotation Zrotation
    JOINT pelvis_lowerback
    {
        OFFSET   0.000000   0.093605   0.000000
        CHANNELS 3 Xrotation Yrotation Zrotation
        JOINT lowerback_torso
        {
            OFFSET   0.000000   0.100000   0.000000
            CHANNELS 3 Xrotation Yrotation Zrotation
            JOINT torso_head
            {
                OFFSET   0.000000   0.282350   0.000000
                CHANNELS 3 Xrotation Yrotation Zrotation
                End Site
                {
                    OFFSET   0.000000   0.192650   0.000000
                }
            }
            JOINT rTorso_Clavicle
            {
                OFFSET  -0.001000   0.157500   0.000000
                CHANNELS 3 Xrotation Yrotation Zrotation
                JOINT rShoulder
                {
                    OFFSET  -0.117647   0.000000   0.000000
                    CHANNELS 3 Xrotation Yrotation Zrotation
                    JOINT rElbow
                    {
                        OFFSET  -0.245000   0.000000   0.000000
                        CHANNELS 3 Xrotation Yrotation Zrotation
                        JOINT rWrist
                        {
                            OFFSET  -0.240000   0.000000   0.000000
                            CHANNELS 3 Xrotation Yrotation Zrotation
                            End Site
                            {
                                OFFSET  -0.116353  -0.002500   0.000000
                            }
                        }
                    }
                }
            }
            JOINT lTorso_Clavicle
            {
                OFFSET   0.001000   0.157500   0.000000
                CHANNELS 3 Xrotation Yrotation Zrotation
                JOINT lShoulder
                {
                    OFFSET   0.117647   0.000000   0.000000
                    CHANNELS 3 Xrotation Yrotation Zrotation
                    JOINT lElbow
                    {
                        OFFSET   0.245000   0.000000   0.000000
                        CHANNELS 3 Xrotation Yrotation Zrotation
                        JOINT lWrist
                        {
                            OFFSET   0.240000   0.000000   0.000000
                            CHANNELS 3 Xrotation Yrotation Zrotation
                            End Site
                            {
                                OFFSET   0.116353  -0.002500   0.000000
                            }
                        }
                    }
                }
            }
        }
    }
    JOINT rHip
    {
        OFFSET  -0.100000  -0.051395   0.000000
        CHANNELS 3 Xrotation Yrotation Zrotation
        JOINT rKnee
        {
            OFFSET   0.000000  -0.410000   0.000000
            CHANNELS 3 Xrotation Yrotation Zrotation
            JOINT rAnkle
            {
                OFFSET   0.000000  -0.390000   0.000000
                CHANNELS 3 Xrotation Yrotation Zrotation
                JOINT rToeJoint
                {
                    OFFSET   0.000000  -0.050000   0.130000
                    CHANNELS 3 Xrotation Yrotation Zrotation
                    End Site
                    {
                        OFFSET  -0.010000   0.002000   0.060000
                    }
                }
            }
        }
    }
    JOINT lHip
    {
        OFFSET   0.100000  -0.051395   0.000000
        CHANNELS 3 Xrotation Yrotation Zrotation
        JOINT lKnee
        {
            OFFSET   0.000000  -0.410000   0.000000
            CHANNELS 3 Xrotation Yrotation Zrotation
            JOINT lAnkle
            {
                OFFSET   0.000000  -0.390000   0.000000
                CHANNELS 3 Xrotation Yrotation Zrotation
                JOINT lToeJoint
                {
                    OFFSET   0.000000  -0.050000   0.130000
                    CHANNELS 3 Xrotation Yrotation Zrotation
                    End Site
                    {
                        OFFSET   0.010000   0.002000   0.060000
                    }
                }
            }
        }
    }
}
MOTION
Frames: 5
Frame Time:   0.008333
 -2.348206   0.859897   4.038842   3.598477   1.611227  -0.835395   1.323663   0.941930  -1.357402   0.783999  -1.902003   0.598411  -7.365244  -0.292855  -0.987534   4.513156   2.800151   3.738077   9.879045  15.468829  41.202178  -0.019910  39.782333   0.010915   7.029389   2.498829 -11.514585   5.194159  -2.116861  -2.443062  12.692526 -11.673348 -48.734338  -0.010188 -29.811954  -0.013622   3.317475  -5.148520   7.796006 -27.552362  -0.902895  -5.031366  44.112121  -0.001666  -0.006175 -20.713951 -10.128808  -0.161416  -6.712365  -0.003791   0.005030 -18.261621  -0.329391   0.262976  44.530573  -0.001679  -0.004578 -30.286923   7.309170   7.715970 -10.552421  -0.005142   0.010940
 -2.348642   0.863682   4.039034   3.470850   2.011522  -0.719785   1.382426   0.830604  -1.451590   0.960408  -1.925898   0.657500  -7.266465  -0.198587  -1.087600   4.393255   2.672826   3.641345  10.014783  15.399463  41.711211  -0.018977  39.149956   0.009662   7.090107   2.514192 -11.586180   5.055144  -2.387351  -2.290323  12.594304 -11.954673 -48.993672  -0.008461 -29.411675  -0.011339   3.426081  -5.123203   7.774697 -26.669773  -0.905914  -5.110483  42.781155  -0.002520  -0.009583 -20.008504 -10.289427  -0.049278  -6.245639  -0.003605   0.005012 -17.866608  -0.164047   0.186186  43.717750  -0.003022  -0.007023 -28.836097   7.424187   7.456547 -10.117146  -0.003936   0.010815
 -2.349011   0.868083   4.039657   3.370713   2.424261  -0.582425   1.325722   0.741733  -1.563568   1.098474  -1.947361   0.689194  -7.162119  -0.105597  -1.190762   4.330392   2.492289   3.516871  10.184103  15.305078  42.203350  -0.017460  38.554043   0.008292   7.140663   2.503613 -11.573991   4.944003  -2.600244  -2.092868  12.518490 -12.199523 -49.231328  -0.006663 -29.042158  -0.008944   3.527805  -5.120873   7.772488 -25.652893  -0.907041  -5.202916  41.217673  -0.003360  -0.013465 -19.392861 -10.436467   0.038395  -5.747299  -0.003521   0.005228 -17.470128   0.026903   0.087946  42.845095  -0.004295  -0.009467 -27.074934   7.505730   7.223168  -9.697103  -0.003128   0.010486
 -2.349322   0.872610   4.040492   3.310124   2.808172  -0.445256   1.196901   0.671357  -1.674923   1.180542  -1.962845   0.708986  -7.070631  -0.016977  -1.290217   4.285814   2.293343   3.353136  10.360331  15.197681  42.647317  -0.015341  37.995626   0.006769   7.185754   2.477510 -11.553401   4.856668  -2.770498  -1.857205  12.464904 -12.408546 -49.435617  -0.004901 -28.695600  -0.006761   3.623557  -5.120755   7.801179 -24.614116  -0.904483  -5.289573  39.562647  -0.003873  -0.016759 -18.859815 -10.571035   0.106803  -5.293617  -0.003392   0.005291 -17.091211   0.213638  -0.014022  41.943078  -0.005198  -0.011364 -25.241512   7.569482   7.010261  -9.305944  -0.002508   0.009907
 -2.349582   0.877006   4.041426   3.277766   3.149980  -0.311478   1.027431   0.615954  -1.783972   1.217658  -1.970891   0.721683  -6.991327   0.066412  -1.383953   4.241934   2.094383   3.155462  10.530034  15.085975  43.038055  -0.012901  37.474201   0.005219   7.227163   2.444050 -11.566229   4.784183  -2.911947  -1.592878  12.426523 -12.588005 -49.604128  -0.003265 -28.369206  -0.004900   3.712938  -5.109407   7.867936 -23.597452  -0.901117  -5.372570  37.896929  -0.003997  -0.018970 -18.388659 -10.695271   0.163025  -4.882065  -0.003220   0.005154 -16.733683   0.390468  -0.116398  41.048176  -0.005669  -0.012537 -23.439251   7.620471   6.812628  -8.945147  -0.001995   0.009148
